<svg id="visual" viewBox="0 0 960 300" width="960" height="300" xmlns="http://www.w3.org/2000/svg" xmlns:xlink="http://www.w3.org/1999/xlink" version="1.1"><path d="M0 244L22.8 232C45.7 220 91.3 196 137 192.2C182.7 188.3 228.3 204.7 274 216.5C319.7 228.3 365.3 235.7 411.2 232.8C457 230 503 217 548.8 211.3C594.7 205.7 640.3 207.3 686 210.2C731.7 213 777.3 217 823 217.3C868.7 217.7 914.3 214.3 937.2 212.7L960 211L960 0L937.2 0C914.3 0 868.7 0 823 0C777.3 0 731.7 0 686 0C640.3 0 594.7 0 548.8 0C503 0 457 0 411.2 0C365.3 0 319.7 0 274 0C228.3 0 182.7 0 137 0C91.3 0 45.7 0 22.8 0L0 0Z" fill="#dcdcdc"></path><path d="M0 149L22.8 151.8C45.7 154.7 91.3 160.3 137 162.8C182.7 165.3 228.3 164.7 274 156.8C319.7 149 365.3 134 411.2 132.8C457 131.7 503 144.3 548.8 154.7C594.7 165 640.3 173 686 175.2C731.7 177.3 777.3 173.7 823 169.3C868.7 165 914.3 160 937.2 157.5L960 155L960 0L937.2 0C914.3 0 868.7 0 823 0C777.3 0 731.7 0 686 0C640.3 0 594.7 0 548.8 0C503 0 457 0 411.2 0C365.3 0 319.7 0 274 0C228.3 0 182.7 0 137 0C91.3 0 45.7 0 22.8 0L0 0Z" fill="#a0a0a0"></path><path d="M0 119L22.8 120C45.7 121 91.3 123 137 121.3C182.7 119.7 228.3 114.3 274 112.5C319.7 110.7 365.3 112.3 411.2 118.2C457 124 503 134 548.8 136.5C594.7 139 640.3 134 686 124.7C731.7 115.3 777.3 101.7 823 105C868.7 108.3 914.3 128.7 937.2 138.8L960 149L960 0L937.2 0C914.3 0 868.7 0 823 0C777.3 0 731.7 0 686 0C640.3 0 594.7 0 548.8 0C503 0 457 0 411.2 0C365.3 0 319.7 0 274 0C228.3 0 182.7 0 137 0C91.3 0 45.7 0 22.8 0L0 0Z" fill="#686868"></path><path d="M0 87L22.8 88.3C45.7 89.7 91.3 92.3 137 92.8C182.7 93.3 228.3 91.7 274 92.3C319.7 93 365.3 96 411.2 97.2C457 98.3 503 97.7 548.8 93.2C594.7 88.7 640.3 80.3 686 82.5C731.7 84.7 777.3 97.3 823 104.7C868.7 112 914.3 114 937.2 115L960 116L960 0L937.2 0C914.3 0 868.7 0 823 0C777.3 0 731.7 0 686 0C640.3 0 594.7 0 548.8 0C503 0 457 0 411.2 0C365.3 0 319.7 0 274 0C228.3 0 182.7 0 137 0C91.3 0 45.7 0 22.8 0L0 0Z" fill="#353535"></path><path d="M0 26L22.8 33.5C45.7 41 91.3 56 137 60.5C182.7 65 228.3 59 274 51.8C319.7 44.7 365.3 36.3 411.2 34.3C457 32.3 503 36.7 548.8 39.8C594.7 43 640.3 45 686 43.3C731.7 41.7 777.3 36.3 823 38.8C868.7 41.3 914.3 51.7 937.2 56.8L960 62L960 0L937.2 0C914.3 0 868.7 0 823 0C777.3 0 731.7 0 686 0C640.3 0 594.7 0 548.8 0C503 0 457 0 411.2 0C365.3 0 319.7 0 274 0C228.3 0 182.7 0 137 0C91.3 0 45.7 0 22.8 0L0 0Z" fill="#000000"></path></svg>