<svg id="visual" viewBox="0 0 900 300" width="900" height="300" xmlns="http://www.w3.org/2000/svg" xmlns:xlink="http://www.w3.org/1999/xlink" version="1.1"><path d="M0 202L21.5 196.7C43 191.3 86 180.7 128.8 162.7C171.7 144.7 214.3 119.3 257.2 118.5C300 117.7 343 141.3 385.8 156.3C428.7 171.3 471.3 177.7 514.2 165C557 152.3 600 120.7 642.8 124C685.7 127.3 728.3 165.7 771.2 182.8C814 200 857 196 878.5 194L900 192L900 0L878.5 0C857 0 814 0 771.2 0C728.3 0 685.7 0 642.8 0C600 0 557 0 514.2 0C471.3 0 428.7 0 385.8 0C343 0 300 0 257.2 0C214.3 0 171.7 0 128.8 0C86 0 43 0 21.5 0L0 0Z" fill="#DCDCDC" stroke-linecap="round" stroke-linejoin="miter"></path></svg>